<svg xmlns="http://www.w3.org/2000/svg" width="512" height="512" viewBox="0 0 512 512">
  <defs>
    <linearGradient id="bg" x1="0" y1="0" x2="0" y2="1">
      <stop offset="0" stop-color="#1a2330"/>
      <stop offset="1" stop-color="#0b0e13"/>
    </linearGradient>
  </defs>
  <rect width="512" height="512" rx="112" fill="url(#bg)"/>
  <!-- 親指（サムズアップ）の簡易シルエット -->
  <g fill="#3ddc84">
    <rect x="120" y="232" width="78" height="150" rx="18"/>
    <path d="M214 382 V250 c0-26 14-44 36-58 l34-22 c14-9 22-22 24-40 l4-34 c2-18 16-28 32-24 18 4 28 22 24 44 l-10 56 78 0 c26 0 44 22 39 47 l-26 118 c-5 24-26 41-50 41 H214 Z"/>
  </g>
  <text x="256" y="468" text-anchor="middle" font-family="Hiragino Sans, Noto Sans JP, sans-serif" font-weight="900" font-size="64" fill="#e8ecf1">偏</text>
</svg>
